<svg xmlns="http://www.w3.org/2000/svg" xmlns:xlink="http://www.w3.org/1999/xlink" width="1136" zoomAndPan="magnify" viewBox="0 0 852 137.249994" height="183" preserveAspectRatio="xMidYMid meet" version="1.0"><defs><g/><clipPath id="7fe32b9e32"><path d="M 15.964844 14.214844 L 141.28125 14.214844 L 141.28125 123 L 15.964844 123 Z M 15.964844 14.214844 " clip-rule="nonzero"/></clipPath><clipPath id="2111dc7c50"><rect x="0" width="688" y="0" height="103"/></clipPath></defs><g clip-path="url(#7fe32b9e32)"><path fill="#00bf63" d="M 15.972656 122.453125 L 96.945312 46.492188 L 78.402344 14.316406 L 47.101562 68.535156 Z M 30.089844 122.75 L 25.796875 122.75 L 78.46875 74.183594 L 95.789062 90.660156 Z M 141.007812 122.75 L 83.980469 68.980469 L 100.792969 53.097656 Z M 141.007812 122.75 " fill-opacity="1" fill-rule="evenodd"/></g><g transform="matrix(1, 0, 0, 1, 145, 23)"><g clip-path="url(#2111dc7c50)"><g fill="#000000" fill-opacity="1"><g transform="translate(0.954961, 75.801952)"><g><path d="M 3.765625 0 L 39.921875 -72.3125 L 52.34375 -72.3125 L 88.609375 0 L 75.359375 0 L 69.453125 -11.609375 L 22.8125 -11.609375 L 16.90625 0 Z M 46.140625 -57.546875 L 28.203125 -22.296875 L 64.0625 -22.296875 Z M 46.140625 -57.546875 "/></g></g></g><g fill="#000000" fill-opacity="1"><g transform="translate(93.216004, 75.801952)"><g><path d="M 20.265625 -10.6875 L 70.0625 -10.6875 L 70.0625 0 L 7.84375 0 L 7.84375 -71.296875 L 20.265625 -71.296875 Z M 20.265625 -10.6875 "/></g></g></g><g fill="#000000" fill-opacity="1"><g transform="translate(154.417424, 75.801952)"><g><path d="M 2.859375 -71.296875 L 82.390625 -71.296875 L 82.390625 -60.796875 L 48.890625 -60.796875 L 48.890625 0 L 36.359375 0 L 36.359375 -60.796875 L 2.859375 -60.796875 Z M 2.859375 -71.296875 "/></g></g></g><g fill="#000000" fill-opacity="1"><g transform="translate(239.753797, 75.801952)"><g><path d="M 7.84375 0 L 7.84375 -71.296875 L 20.265625 -71.296875 L 20.265625 0 Z M 7.84375 0 "/></g></g></g><g fill="#000000" fill-opacity="1"><g transform="translate(267.757961, 75.801952)"><g><path d="M 6.828125 -28.203125 L 6.828125 -71.296875 L 19.25 -71.296875 L 19.25 -28.203125 C 19.25 -24.066406 20.351562 -20.625 22.5625 -17.875 C 24.769531 -15.125 27.601562 -13.066406 31.0625 -11.703125 C 34.519531 -10.347656 38.117188 -9.671875 41.859375 -9.671875 C 45.660156 -9.671875 49.273438 -10.347656 52.703125 -11.703125 C 56.128906 -13.066406 58.945312 -15.125 61.15625 -17.875 C 63.363281 -20.625 64.46875 -24.066406 64.46875 -28.203125 L 64.46875 -71.296875 L 76.890625 -71.296875 L 76.890625 -28.203125 C 76.890625 -23.117188 75.90625 -18.640625 73.9375 -14.765625 C 71.96875 -10.898438 69.300781 -7.691406 65.9375 -5.140625 C 62.582031 -2.597656 58.832031 -0.679688 54.6875 0.609375 C 50.550781 1.898438 46.273438 2.546875 41.859375 2.546875 C 37.515625 2.546875 33.253906 1.898438 29.078125 0.609375 C 24.898438 -0.679688 21.128906 -2.597656 17.765625 -5.140625 C 14.410156 -7.691406 11.75 -10.898438 9.78125 -14.765625 C 7.8125 -18.640625 6.828125 -23.117188 6.828125 -28.203125 Z M 6.828125 -28.203125 "/></g></g></g><g fill="#000000" fill-opacity="1"><g transform="translate(351.465018, 75.801952)"><g><path d="M 74.34375 -62.84375 L 67.625 -53.15625 C 65.789062 -54.925781 63.378906 -56.4375 60.390625 -57.6875 C 57.398438 -58.945312 54.175781 -59.929688 50.71875 -60.640625 C 47.257812 -61.359375 43.832031 -61.71875 40.4375 -61.71875 C 37.175781 -61.71875 34.148438 -61.34375 31.359375 -60.59375 C 28.578125 -59.851562 26.351562 -58.71875 24.6875 -57.1875 C 23.03125 -55.65625 22.203125 -53.632812 22.203125 -51.125 C 22.203125 -48.882812 23.148438 -47.132812 25.046875 -45.875 C 26.953125 -44.625 29.484375 -43.640625 32.640625 -42.921875 C 35.796875 -42.210938 39.238281 -41.585938 42.96875 -41.046875 C 46.707031 -40.503906 50.441406 -39.820312 54.171875 -39 C 57.910156 -38.1875 61.359375 -37.03125 64.515625 -35.53125 C 67.671875 -34.039062 70.195312 -32.003906 72.09375 -29.421875 C 74 -26.847656 74.953125 -23.523438 74.953125 -19.453125 C 74.953125 -15.648438 74.019531 -12.375 72.15625 -9.625 C 70.289062 -6.875 67.78125 -4.632812 64.625 -2.90625 C 61.46875 -1.175781 57.867188 0.109375 53.828125 0.953125 C 49.785156 1.804688 45.625 2.234375 41.34375 2.234375 C 36.726562 2.234375 32.144531 1.789062 27.59375 0.90625 C 23.050781 0.03125 18.878906 -1.234375 15.078125 -2.890625 C 11.273438 -4.554688 8.148438 -6.546875 5.703125 -8.859375 L 12.734375 -18.53125 C 14.566406 -16.632812 17.09375 -14.972656 20.3125 -13.546875 C 23.539062 -12.117188 27.070312 -11.03125 30.90625 -10.28125 C 34.738281 -9.539062 38.523438 -9.171875 42.265625 -9.171875 C 45.722656 -9.171875 48.925781 -9.523438 51.875 -10.234375 C 54.832031 -10.941406 57.191406 -12.039062 58.953125 -13.53125 C 60.722656 -15.03125 61.609375 -16.96875 61.609375 -19.34375 C 61.609375 -21.726562 60.65625 -23.597656 58.75 -24.953125 C 56.851562 -26.304688 54.34375 -27.359375 51.21875 -28.109375 C 48.101562 -28.859375 44.675781 -29.519531 40.9375 -30.09375 C 37.207031 -30.664062 33.457031 -31.359375 29.6875 -32.171875 C 25.914062 -32.992188 22.46875 -34.132812 19.34375 -35.59375 C 16.226562 -37.050781 13.71875 -39.035156 11.8125 -41.546875 C 9.914062 -44.066406 8.96875 -47.328125 8.96875 -51.328125 C 8.96875 -55.203125 9.8125 -58.53125 11.5 -61.3125 C 13.195312 -64.09375 15.523438 -66.347656 18.484375 -68.078125 C 21.441406 -69.804688 24.769531 -71.078125 28.46875 -71.890625 C 32.164062 -72.710938 36.050781 -73.125 40.125 -73.125 C 44.46875 -73.125 48.78125 -72.695312 53.0625 -71.84375 C 57.34375 -71 61.332031 -69.8125 65.03125 -68.28125 C 68.726562 -66.757812 71.832031 -64.945312 74.34375 -62.84375 Z M 74.34375 -62.84375 "/></g></g></g><g fill="#000000" fill-opacity="1"><g transform="translate(426.923343, 75.801952)"><g><path d="M 86.46875 -35.640625 C 86.46875 -29.328125 85.257812 -23.8125 82.84375 -19.09375 C 80.4375 -14.375 77.242188 -10.46875 73.265625 -7.375 C 69.296875 -4.289062 64.953125 -1.96875 60.234375 -0.40625 C 55.515625 1.15625 50.816406 1.9375 46.140625 1.9375 C 41.515625 1.9375 36.84375 1.15625 32.125 -0.40625 C 27.40625 -1.96875 23.0625 -4.289062 19.09375 -7.375 C 15.125 -10.46875 11.929688 -14.375 9.515625 -19.09375 C 7.109375 -23.8125 5.90625 -29.328125 5.90625 -35.640625 C 5.90625 -41.953125 7.109375 -47.46875 9.515625 -52.1875 C 11.929688 -56.90625 15.125 -60.8125 19.09375 -63.90625 C 23.0625 -67 27.40625 -69.320312 32.125 -70.875 C 36.84375 -72.4375 41.515625 -73.21875 46.140625 -73.21875 C 50.816406 -73.21875 55.515625 -72.4375 60.234375 -70.875 C 64.953125 -69.320312 69.296875 -67 73.265625 -63.90625 C 77.242188 -60.8125 80.4375 -56.90625 82.84375 -52.1875 C 85.257812 -47.46875 86.46875 -41.953125 86.46875 -35.640625 Z M 73.734375 -35.640625 C 73.734375 -39.984375 72.898438 -43.769531 71.234375 -47 C 69.578125 -50.226562 67.390625 -52.910156 64.671875 -55.046875 C 61.953125 -57.179688 58.976562 -58.789062 55.75 -59.875 C 52.53125 -60.96875 49.328125 -61.515625 46.140625 -61.515625 C 43.015625 -61.515625 39.820312 -60.96875 36.5625 -59.875 C 33.300781 -58.789062 30.328125 -57.179688 27.640625 -55.046875 C 24.960938 -52.910156 22.789062 -50.226562 21.125 -47 C 19.46875 -43.769531 18.640625 -39.984375 18.640625 -35.640625 C 18.640625 -31.296875 19.46875 -27.507812 21.125 -24.28125 C 22.789062 -21.0625 24.960938 -18.378906 27.640625 -16.234375 C 30.328125 -14.097656 33.300781 -12.488281 36.5625 -11.40625 C 39.820312 -10.320312 43.015625 -9.78125 46.140625 -9.78125 C 49.328125 -9.78125 52.53125 -10.320312 55.75 -11.40625 C 58.976562 -12.488281 61.953125 -14.097656 64.671875 -16.234375 C 67.390625 -18.378906 69.578125 -21.0625 71.234375 -24.28125 C 72.898438 -27.507812 73.734375 -31.296875 73.734375 -35.640625 Z M 73.734375 -35.640625 "/></g></g></g><g fill="#000000" fill-opacity="1"><g transform="translate(519.286229, 75.801952)"><g><path d="M 7.84375 0 L 7.84375 -71.296875 L 20.265625 -71.296875 L 70.171875 -16.09375 L 70.171875 -71.296875 L 82.703125 -71.296875 L 82.703125 0 L 70.171875 0 L 20.265625 -55.203125 L 20.265625 0 Z M 7.84375 0 "/></g></g></g><g fill="#000000" fill-opacity="1"><g transform="translate(609.714268, 75.801952)"><g><path d="M 20.265625 -10.6875 L 71.390625 -10.6875 L 71.390625 0 L 7.84375 0 L 7.84375 -71.296875 L 70.78125 -71.296875 L 70.78125 -60.59375 L 20.265625 -60.59375 L 20.265625 -41.046875 L 63.859375 -41.046875 L 63.859375 -30.34375 L 20.265625 -30.34375 Z M 20.265625 -10.6875 "/></g></g></g></g></g></svg>