<svg xmlns="http://www.w3.org/2000/svg" xmlns:xlink="http://www.w3.org/1999/xlink" width="250" zoomAndPan="magnify" viewBox="0 0 187.5 187.499992" height="250" preserveAspectRatio="xMidYMid meet" version="1.0"><defs><g/><clipPath id="499a7bff92"><rect x="0" width="141" y="0" height="9"/></clipPath><clipPath id="d3b6f27764"><path d="M 0.03125 1 L 13 1 L 13 12 L 0.03125 12 Z M 0.03125 1 " clip-rule="nonzero"/></clipPath><clipPath id="93ac1f6623"><path d="M 65 0.4375 L 76 0.4375 L 76 12 L 65 12 Z M 65 0.4375 " clip-rule="nonzero"/></clipPath><clipPath id="6eb0ad3022"><path d="M 79 0.4375 L 92 0.4375 L 92 12 L 79 12 Z M 79 0.4375 " clip-rule="nonzero"/></clipPath><clipPath id="d04e95214d"><rect x="0" width="125" y="0" height="15"/></clipPath><clipPath id="4ecebbf4ec"><path d="M 23.308594 5 L 163.933594 5 L 163.933594 126.917969 L 23.308594 126.917969 Z M 23.308594 5 " clip-rule="nonzero"/></clipPath></defs><g transform="matrix(1, 0, 0, 1, 24, 153)"><g clip-path="url(#499a7bff92)"><g fill="#00bf63" fill-opacity="1"><g transform="translate(1.112263, 6.379519)"><g><path d="M 1.328125 -3.3125 L 0.015625 -3.3125 L 0.015625 -4.078125 L 3.578125 -4.078125 L 3.578125 -3.3125 L 2.265625 -3.3125 L 2.265625 0 L 1.328125 0 Z M 1.328125 -3.3125 "/></g></g></g><g fill="#00bf63" fill-opacity="1"><g transform="translate(7.689237, 6.379519)"><g><path d="M 2.453125 0.0625 C 2.035156 0.0625 1.65625 -0.0234375 1.3125 -0.203125 C 0.96875 -0.390625 0.703125 -0.640625 0.515625 -0.953125 C 0.328125 -1.273438 0.234375 -1.640625 0.234375 -2.046875 C 0.234375 -2.441406 0.328125 -2.800781 0.515625 -3.125 C 0.703125 -3.445312 0.96875 -3.695312 1.3125 -3.875 C 1.65625 -4.0625 2.035156 -4.15625 2.453125 -4.15625 C 2.878906 -4.15625 3.257812 -4.0625 3.59375 -3.875 C 3.9375 -3.695312 4.203125 -3.445312 4.390625 -3.125 C 4.585938 -2.800781 4.6875 -2.441406 4.6875 -2.046875 C 4.6875 -1.640625 4.585938 -1.273438 4.390625 -0.953125 C 4.203125 -0.640625 3.9375 -0.390625 3.59375 -0.203125 C 3.257812 -0.0234375 2.878906 0.0625 2.453125 0.0625 Z M 2.453125 -0.734375 C 2.703125 -0.734375 2.921875 -0.785156 3.109375 -0.890625 C 3.304688 -1.003906 3.457031 -1.160156 3.5625 -1.359375 C 3.675781 -1.554688 3.734375 -1.785156 3.734375 -2.046875 C 3.734375 -2.296875 3.675781 -2.519531 3.5625 -2.71875 C 3.457031 -2.914062 3.304688 -3.066406 3.109375 -3.171875 C 2.921875 -3.285156 2.703125 -3.34375 2.453125 -3.34375 C 2.210938 -3.34375 1.992188 -3.285156 1.796875 -3.171875 C 1.609375 -3.066406 1.457031 -2.914062 1.34375 -2.71875 C 1.238281 -2.519531 1.1875 -2.296875 1.1875 -2.046875 C 1.1875 -1.785156 1.238281 -1.554688 1.34375 -1.359375 C 1.457031 -1.160156 1.609375 -1.003906 1.796875 -0.890625 C 1.992188 -0.785156 2.210938 -0.734375 2.453125 -0.734375 Z M 2.453125 -0.734375 "/></g></g></g><g fill="#00bf63" fill-opacity="1"><g transform="translate(15.582142, 6.379519)"><g><path d="M 6.65625 -4.078125 L 5.3125 0 L 4.296875 0 L 3.40625 -2.765625 L 2.484375 0 L 1.46875 0 L 0.125 -4.078125 L 1.109375 -4.078125 L 2.03125 -1.21875 L 2.984375 -4.078125 L 3.859375 -4.078125 L 4.796875 -1.1875 L 5.75 -4.078125 Z M 6.65625 -4.078125 "/></g></g></g><g fill="#00bf63" fill-opacity="1"><g transform="translate(25.332492, 6.379519)"><g><path d="M 3.171875 -0.875 L 1.28125 -0.875 L 0.921875 0 L -0.046875 0 L 1.765625 -4.078125 L 2.703125 -4.078125 L 4.515625 0 L 3.53125 0 Z M 2.875 -1.59375 L 2.21875 -3.15625 L 1.578125 -1.59375 Z M 2.875 -1.59375 "/></g></g></g><g fill="#00bf63" fill-opacity="1"><g transform="translate(32.771227, 6.379519)"><g><path d="M 3.078125 0 L 2.296875 -1.140625 L 1.421875 -1.140625 L 1.421875 0 L 0.484375 0 L 0.484375 -4.078125 L 2.25 -4.078125 C 2.613281 -4.078125 2.925781 -4.015625 3.1875 -3.890625 C 3.457031 -3.773438 3.660156 -3.601562 3.796875 -3.375 C 3.941406 -3.15625 4.015625 -2.894531 4.015625 -2.59375 C 4.015625 -2.289062 3.941406 -2.03125 3.796875 -1.8125 C 3.648438 -1.59375 3.445312 -1.425781 3.1875 -1.3125 L 4.09375 0 Z M 3.0625 -2.59375 C 3.0625 -2.820312 2.988281 -3 2.84375 -3.125 C 2.695312 -3.25 2.484375 -3.3125 2.203125 -3.3125 L 1.421875 -3.3125 L 1.421875 -1.890625 L 2.203125 -1.890625 C 2.484375 -1.890625 2.695312 -1.953125 2.84375 -2.078125 C 2.988281 -2.203125 3.0625 -2.375 3.0625 -2.59375 Z M 3.0625 -2.59375 "/></g></g></g><g fill="#00bf63" fill-opacity="1"><g transform="translate(40.029454, 6.379519)"><g><path d="M 0.484375 -4.078125 L 2.34375 -4.078125 C 2.78125 -4.078125 3.164062 -3.992188 3.5 -3.828125 C 3.84375 -3.660156 4.109375 -3.421875 4.296875 -3.109375 C 4.492188 -2.804688 4.59375 -2.453125 4.59375 -2.046875 C 4.59375 -1.628906 4.492188 -1.265625 4.296875 -0.953125 C 4.109375 -0.648438 3.84375 -0.414062 3.5 -0.25 C 3.164062 -0.0820312 2.78125 0 2.34375 0 L 0.484375 0 Z M 2.296875 -0.78125 C 2.703125 -0.78125 3.023438 -0.890625 3.265625 -1.109375 C 3.503906 -1.335938 3.625 -1.648438 3.625 -2.046875 C 3.625 -2.429688 3.503906 -2.734375 3.265625 -2.953125 C 3.023438 -3.179688 2.703125 -3.296875 2.296875 -3.296875 L 1.421875 -3.296875 L 1.421875 -0.78125 Z M 2.296875 -0.78125 "/></g></g></g><g fill="#00bf63" fill-opacity="1"><g transform="translate(47.817549, 6.379519)"><g><path d="M 1.828125 0.0625 C 1.503906 0.0625 1.191406 0.0195312 0.890625 -0.0625 C 0.585938 -0.144531 0.34375 -0.257812 0.15625 -0.40625 L 0.484375 -1.109375 C 0.660156 -0.984375 0.867188 -0.878906 1.109375 -0.796875 C 1.347656 -0.722656 1.585938 -0.6875 1.828125 -0.6875 C 2.097656 -0.6875 2.296875 -0.722656 2.421875 -0.796875 C 2.546875 -0.878906 2.609375 -0.988281 2.609375 -1.125 C 2.609375 -1.21875 2.570312 -1.296875 2.5 -1.359375 C 2.425781 -1.429688 2.328125 -1.484375 2.203125 -1.515625 C 2.085938 -1.554688 1.929688 -1.601562 1.734375 -1.65625 C 1.421875 -1.726562 1.164062 -1.800781 0.96875 -1.875 C 0.769531 -1.945312 0.597656 -2.0625 0.453125 -2.21875 C 0.316406 -2.382812 0.25 -2.601562 0.25 -2.875 C 0.25 -3.113281 0.3125 -3.328125 0.4375 -3.515625 C 0.5625 -3.710938 0.753906 -3.867188 1.015625 -3.984375 C 1.273438 -4.097656 1.59375 -4.15625 1.96875 -4.15625 C 2.226562 -4.15625 2.476562 -4.125 2.71875 -4.0625 C 2.96875 -4 3.1875 -3.90625 3.375 -3.78125 L 3.09375 -3.078125 C 2.71875 -3.285156 2.335938 -3.390625 1.953125 -3.390625 C 1.691406 -3.390625 1.5 -3.347656 1.375 -3.265625 C 1.25 -3.179688 1.1875 -3.066406 1.1875 -2.921875 C 1.1875 -2.785156 1.257812 -2.679688 1.40625 -2.609375 C 1.550781 -2.546875 1.769531 -2.476562 2.0625 -2.40625 C 2.375 -2.332031 2.628906 -2.257812 2.828125 -2.1875 C 3.023438 -2.113281 3.195312 -2 3.34375 -1.84375 C 3.488281 -1.6875 3.5625 -1.46875 3.5625 -1.1875 C 3.5625 -0.957031 3.492188 -0.742188 3.359375 -0.546875 C 3.234375 -0.359375 3.039062 -0.207031 2.78125 -0.09375 C 2.519531 0.0078125 2.203125 0.0625 1.828125 0.0625 Z M 1.828125 0.0625 "/></g></g></g><g fill="#00bf63" fill-opacity="1"><g transform="translate(54.510976, 6.379519)"><g/></g></g><g fill="#00bf63" fill-opacity="1"><g transform="translate(59.137339, 6.379519)"><g><path d="M 1.328125 -3.3125 L 0.015625 -3.3125 L 0.015625 -4.078125 L 3.578125 -4.078125 L 3.578125 -3.3125 L 2.265625 -3.3125 L 2.265625 0 L 1.328125 0 Z M 1.328125 -3.3125 "/></g></g></g><g fill="#00bf63" fill-opacity="1"><g transform="translate(65.714312, 6.379519)"><g><path d="M 4.21875 -4.078125 L 4.21875 0 L 3.28125 0 L 3.28125 -1.671875 L 1.421875 -1.671875 L 1.421875 0 L 0.484375 0 L 0.484375 -4.078125 L 1.421875 -4.078125 L 1.421875 -2.46875 L 3.28125 -2.46875 L 3.28125 -4.078125 Z M 4.21875 -4.078125 "/></g></g></g><g fill="#00bf63" fill-opacity="1"><g transform="translate(73.397598, 6.379519)"><g><path d="M 3.640625 -0.75 L 3.640625 0 L 0.484375 0 L 0.484375 -4.078125 L 3.5625 -4.078125 L 3.5625 -3.328125 L 1.421875 -3.328125 L 1.421875 -2.4375 L 3.3125 -2.4375 L 3.3125 -1.703125 L 1.421875 -1.703125 L 1.421875 -0.75 Z M 3.640625 -0.75 "/></g></g></g><g fill="#00bf63" fill-opacity="1"><g transform="translate(80.28317, 6.379519)"><g/></g></g><g fill="#00bf63" fill-opacity="1"><g transform="translate(84.909533, 6.379519)"><g><path d="M 2.453125 0.0625 C 2.035156 0.0625 1.65625 -0.0234375 1.3125 -0.203125 C 0.96875 -0.390625 0.703125 -0.640625 0.515625 -0.953125 C 0.328125 -1.273438 0.234375 -1.640625 0.234375 -2.046875 C 0.234375 -2.441406 0.328125 -2.800781 0.515625 -3.125 C 0.703125 -3.445312 0.96875 -3.695312 1.3125 -3.875 C 1.65625 -4.0625 2.035156 -4.15625 2.453125 -4.15625 C 2.878906 -4.15625 3.257812 -4.0625 3.59375 -3.875 C 3.9375 -3.695312 4.203125 -3.445312 4.390625 -3.125 C 4.585938 -2.800781 4.6875 -2.441406 4.6875 -2.046875 C 4.6875 -1.640625 4.585938 -1.273438 4.390625 -0.953125 C 4.203125 -0.640625 3.9375 -0.390625 3.59375 -0.203125 C 3.257812 -0.0234375 2.878906 0.0625 2.453125 0.0625 Z M 2.453125 -0.734375 C 2.703125 -0.734375 2.921875 -0.785156 3.109375 -0.890625 C 3.304688 -1.003906 3.457031 -1.160156 3.5625 -1.359375 C 3.675781 -1.554688 3.734375 -1.785156 3.734375 -2.046875 C 3.734375 -2.296875 3.675781 -2.519531 3.5625 -2.71875 C 3.457031 -2.914062 3.304688 -3.066406 3.109375 -3.171875 C 2.921875 -3.285156 2.703125 -3.34375 2.453125 -3.34375 C 2.210938 -3.34375 1.992188 -3.285156 1.796875 -3.171875 C 1.609375 -3.066406 1.457031 -2.914062 1.34375 -2.71875 C 1.238281 -2.519531 1.1875 -2.296875 1.1875 -2.046875 C 1.1875 -1.785156 1.238281 -1.554688 1.34375 -1.359375 C 1.457031 -1.160156 1.609375 -1.003906 1.796875 -0.890625 C 1.992188 -0.785156 2.210938 -0.734375 2.453125 -0.734375 Z M 2.453125 -0.734375 "/></g></g></g><g fill="#00bf63" fill-opacity="1"><g transform="translate(92.802439, 6.379519)"><g><path d="M 2.25 -4.078125 C 2.613281 -4.078125 2.925781 -4.015625 3.1875 -3.890625 C 3.457031 -3.773438 3.660156 -3.601562 3.796875 -3.375 C 3.941406 -3.15625 4.015625 -2.894531 4.015625 -2.59375 C 4.015625 -2.300781 3.941406 -2.039062 3.796875 -1.8125 C 3.660156 -1.59375 3.457031 -1.421875 3.1875 -1.296875 C 2.925781 -1.179688 2.613281 -1.125 2.25 -1.125 L 1.421875 -1.125 L 1.421875 0 L 0.484375 0 L 0.484375 -4.078125 Z M 2.203125 -1.890625 C 2.484375 -1.890625 2.695312 -1.953125 2.84375 -2.078125 C 2.988281 -2.203125 3.0625 -2.375 3.0625 -2.59375 C 3.0625 -2.820312 2.988281 -3 2.84375 -3.125 C 2.695312 -3.25 2.484375 -3.3125 2.203125 -3.3125 L 1.421875 -3.3125 L 1.421875 -1.890625 Z M 2.203125 -1.890625 "/></g></g></g><g fill="#00bf63" fill-opacity="1"><g transform="translate(100.043197, 6.379519)"><g><path d="M 1.328125 -3.3125 L 0.015625 -3.3125 L 0.015625 -4.078125 L 3.578125 -4.078125 L 3.578125 -3.3125 L 2.265625 -3.3125 L 2.265625 0 L 1.328125 0 Z M 1.328125 -3.3125 "/></g></g></g><g fill="#00bf63" fill-opacity="1"><g transform="translate(106.620176, 6.379519)"><g><path d="M 0.484375 -4.078125 L 1.421875 -4.078125 L 1.421875 0 L 0.484375 0 Z M 0.484375 -4.078125 "/></g></g></g><g fill="#00bf63" fill-opacity="1"><g transform="translate(111.508552, 6.379519)"><g><path d="M 4.203125 0 L 4.1875 -2.453125 L 2.984375 -0.4375 L 2.5625 -0.4375 L 1.375 -2.390625 L 1.375 0 L 0.484375 0 L 0.484375 -4.078125 L 1.265625 -4.078125 L 2.796875 -1.546875 L 4.296875 -4.078125 L 5.078125 -4.078125 L 5.078125 0 Z M 4.203125 0 "/></g></g></g><g fill="#00bf63" fill-opacity="1"><g transform="translate(120.047786, 6.379519)"><g><path d="M 2.296875 0.0625 C 1.710938 0.0625 1.257812 -0.09375 0.9375 -0.40625 C 0.613281 -0.726562 0.453125 -1.191406 0.453125 -1.796875 L 0.453125 -4.078125 L 1.390625 -4.078125 L 1.390625 -1.828125 C 1.390625 -1.097656 1.691406 -0.734375 2.296875 -0.734375 C 2.597656 -0.734375 2.828125 -0.820312 2.984375 -1 C 3.140625 -1.175781 3.21875 -1.453125 3.21875 -1.828125 L 3.21875 -4.078125 L 4.140625 -4.078125 L 4.140625 -1.796875 C 4.140625 -1.191406 3.976562 -0.726562 3.65625 -0.40625 C 3.332031 -0.09375 2.878906 0.0625 2.296875 0.0625 Z M 2.296875 0.0625 "/></g></g></g><g fill="#00bf63" fill-opacity="1"><g transform="translate(127.614612, 6.379519)"><g><path d="M 4.203125 0 L 4.1875 -2.453125 L 2.984375 -0.4375 L 2.5625 -0.4375 L 1.375 -2.390625 L 1.375 0 L 0.484375 0 L 0.484375 -4.078125 L 1.265625 -4.078125 L 2.796875 -1.546875 L 4.296875 -4.078125 L 5.078125 -4.078125 L 5.078125 0 Z M 4.203125 0 "/></g></g></g><g fill="#00bf63" fill-opacity="1"><g transform="translate(136.153834, 6.379519)"><g><path d="M 0.296875 -4.078125 L 1.390625 -4.078125 L 1.203125 -1.421875 L 0.484375 -1.421875 Z M 0.84375 0.046875 C 0.6875 0.046875 0.550781 -0.00390625 0.4375 -0.109375 C 0.332031 -0.210938 0.28125 -0.335938 0.28125 -0.484375 C 0.28125 -0.628906 0.332031 -0.75 0.4375 -0.84375 C 0.539062 -0.945312 0.675781 -1 0.84375 -1 C 1.007812 -1 1.144531 -0.945312 1.25 -0.84375 C 1.351562 -0.75 1.40625 -0.628906 1.40625 -0.484375 C 1.40625 -0.335938 1.347656 -0.210938 1.234375 -0.109375 C 1.128906 -0.00390625 1 0.046875 0.84375 0.046875 Z M 0.84375 0.046875 "/></g></g></g></g></g><g transform="matrix(1, 0, 0, 1, 33, 136)"><g clip-path="url(#d04e95214d)"><g clip-path="url(#d3b6f27764)"><g fill="#7ed957" fill-opacity="1"><g transform="translate(0.135965, 11.103015)"><g><path d="M 0.515625 0 L 5.53125 -10 L 7.25 -10 L 12.265625 0 L 10.421875 0 L 9.609375 -1.609375 L 3.15625 -1.609375 L 2.34375 0 Z M 6.390625 -7.96875 L 3.90625 -3.09375 L 8.859375 -3.09375 Z M 6.390625 -7.96875 "/></g></g></g></g><g fill="#7ed957" fill-opacity="1"><g transform="translate(15.830639, 11.103015)"><g><path d="M 2.796875 -1.484375 L 9.703125 -1.484375 L 9.703125 0 L 1.078125 0 L 1.078125 -9.859375 L 2.796875 -9.859375 Z M 2.796875 -1.484375 "/></g></g></g><g fill="#7ed957" fill-opacity="1"><g transform="translate(28.989478, 11.103015)"><g><path d="M 0.390625 -9.859375 L 11.40625 -9.859375 L 11.40625 -8.40625 L 6.765625 -8.40625 L 6.765625 0 L 5.03125 0 L 5.03125 -8.40625 L 0.390625 -8.40625 Z M 0.390625 -9.859375 "/></g></g></g><g fill="#7ed957" fill-opacity="1"><g transform="translate(43.72617, 11.103015)"><g><path d="M 1.078125 0 L 1.078125 -9.859375 L 2.796875 -9.859375 L 2.796875 0 Z M 1.078125 0 "/></g></g></g><g fill="#7ed957" fill-opacity="1"><g transform="translate(50.531322, 11.103015)"><g><path d="M 0.9375 -3.90625 L 0.9375 -9.859375 L 2.65625 -9.859375 L 2.65625 -3.90625 C 2.65625 -3.332031 2.804688 -2.851562 3.109375 -2.46875 C 3.421875 -2.09375 3.816406 -1.8125 4.296875 -1.625 C 4.773438 -1.4375 5.273438 -1.34375 5.796875 -1.34375 C 6.316406 -1.34375 6.8125 -1.4375 7.28125 -1.625 C 7.757812 -1.8125 8.148438 -2.09375 8.453125 -2.46875 C 8.765625 -2.851562 8.921875 -3.332031 8.921875 -3.90625 L 8.921875 -9.859375 L 10.640625 -9.859375 L 10.640625 -3.90625 C 10.640625 -3.195312 10.503906 -2.570312 10.234375 -2.03125 C 9.960938 -1.5 9.59375 -1.054688 9.125 -0.703125 C 8.65625 -0.359375 8.132812 -0.0976562 7.5625 0.078125 C 6.988281 0.265625 6.398438 0.359375 5.796875 0.359375 C 5.191406 0.359375 4.597656 0.265625 4.015625 0.078125 C 3.441406 -0.0976562 2.921875 -0.359375 2.453125 -0.703125 C 1.992188 -1.054688 1.625 -1.5 1.34375 -2.03125 C 1.070312 -2.570312 0.9375 -3.195312 0.9375 -3.90625 Z M 0.9375 -3.90625 "/></g></g></g><g clip-path="url(#93ac1f6623)"><g fill="#7ed957" fill-opacity="1"><g transform="translate(65.042607, 11.103015)"><g><path d="M 10.28125 -8.703125 L 9.359375 -7.359375 C 9.109375 -7.597656 8.773438 -7.804688 8.359375 -7.984375 C 7.941406 -8.160156 7.492188 -8.296875 7.015625 -8.390625 C 6.535156 -8.492188 6.0625 -8.546875 5.59375 -8.546875 C 5.144531 -8.546875 4.726562 -8.492188 4.34375 -8.390625 C 3.957031 -8.285156 3.648438 -8.125 3.421875 -7.90625 C 3.191406 -7.695312 3.078125 -7.421875 3.078125 -7.078125 C 3.078125 -6.765625 3.207031 -6.519531 3.46875 -6.34375 C 3.726562 -6.175781 4.078125 -6.039062 4.515625 -5.9375 C 4.953125 -5.84375 5.425781 -5.753906 5.9375 -5.671875 C 6.457031 -5.597656 6.972656 -5.503906 7.484375 -5.390625 C 8.003906 -5.285156 8.484375 -5.128906 8.921875 -4.921875 C 9.359375 -4.710938 9.707031 -4.425781 9.96875 -4.0625 C 10.238281 -3.707031 10.375 -3.25 10.375 -2.6875 C 10.375 -2.164062 10.242188 -1.710938 9.984375 -1.328125 C 9.722656 -0.953125 9.375 -0.644531 8.9375 -0.40625 C 8.5 -0.164062 8 0.0078125 7.4375 0.125 C 6.882812 0.25 6.3125 0.3125 5.71875 0.3125 C 5.082031 0.3125 4.445312 0.25 3.8125 0.125 C 3.1875 0 2.609375 -0.175781 2.078125 -0.40625 C 1.554688 -0.632812 1.128906 -0.90625 0.796875 -1.21875 L 1.765625 -2.5625 C 2.015625 -2.300781 2.363281 -2.070312 2.8125 -1.875 C 3.257812 -1.675781 3.75 -1.523438 4.28125 -1.421875 C 4.8125 -1.316406 5.332031 -1.265625 5.84375 -1.265625 C 6.320312 -1.265625 6.765625 -1.3125 7.171875 -1.40625 C 7.585938 -1.507812 7.914062 -1.664062 8.15625 -1.875 C 8.40625 -2.082031 8.53125 -2.347656 8.53125 -2.671875 C 8.53125 -3.003906 8.394531 -3.265625 8.125 -3.453125 C 7.863281 -3.640625 7.515625 -3.785156 7.078125 -3.890625 C 6.648438 -3.992188 6.175781 -4.082031 5.65625 -4.15625 C 5.144531 -4.238281 4.628906 -4.335938 4.109375 -4.453125 C 3.585938 -4.566406 3.109375 -4.722656 2.671875 -4.921875 C 2.242188 -5.128906 1.894531 -5.40625 1.625 -5.75 C 1.363281 -6.09375 1.234375 -6.546875 1.234375 -7.109375 C 1.234375 -7.640625 1.347656 -8.097656 1.578125 -8.484375 C 1.816406 -8.867188 2.140625 -9.179688 2.546875 -9.421875 C 2.960938 -9.660156 3.425781 -9.835938 3.9375 -9.953125 C 4.445312 -10.066406 4.984375 -10.125 5.546875 -10.125 C 6.148438 -10.125 6.75 -10.0625 7.34375 -9.9375 C 7.9375 -9.820312 8.488281 -9.65625 9 -9.4375 C 9.507812 -9.226562 9.9375 -8.984375 10.28125 -8.703125 Z M 10.28125 -8.703125 "/></g></g></g></g><g clip-path="url(#6eb0ad3022)"><g fill="#7ed957" fill-opacity="1"><g transform="translate(79.145338, 11.103015)"><g><path d="M 11.96875 -4.9375 C 11.96875 -4.0625 11.800781 -3.296875 11.46875 -2.640625 C 11.132812 -1.984375 10.691406 -1.441406 10.140625 -1.015625 C 9.585938 -0.585938 8.984375 -0.265625 8.328125 -0.046875 C 7.679688 0.160156 7.035156 0.265625 6.390625 0.265625 C 5.742188 0.265625 5.09375 0.160156 4.4375 -0.046875 C 3.789062 -0.265625 3.191406 -0.585938 2.640625 -1.015625 C 2.085938 -1.441406 1.644531 -1.984375 1.3125 -2.640625 C 0.976562 -3.296875 0.8125 -4.0625 0.8125 -4.9375 C 0.8125 -5.8125 0.976562 -6.570312 1.3125 -7.21875 C 1.644531 -7.875 2.085938 -8.414062 2.640625 -8.84375 C 3.191406 -9.269531 3.789062 -9.59375 4.4375 -9.8125 C 5.09375 -10.03125 5.742188 -10.140625 6.390625 -10.140625 C 7.035156 -10.140625 7.679688 -10.03125 8.328125 -9.8125 C 8.984375 -9.59375 9.585938 -9.269531 10.140625 -8.84375 C 10.691406 -8.414062 11.132812 -7.875 11.46875 -7.21875 C 11.800781 -6.570312 11.96875 -5.8125 11.96875 -4.9375 Z M 10.203125 -4.9375 C 10.203125 -5.53125 10.085938 -6.050781 9.859375 -6.5 C 9.628906 -6.945312 9.328125 -7.316406 8.953125 -7.609375 C 8.578125 -7.910156 8.164062 -8.132812 7.71875 -8.28125 C 7.269531 -8.4375 6.828125 -8.515625 6.390625 -8.515625 C 5.953125 -8.515625 5.507812 -8.4375 5.0625 -8.28125 C 4.613281 -8.132812 4.203125 -7.910156 3.828125 -7.609375 C 3.453125 -7.316406 3.148438 -6.945312 2.921875 -6.5 C 2.691406 -6.050781 2.578125 -5.53125 2.578125 -4.9375 C 2.578125 -4.332031 2.691406 -3.804688 2.921875 -3.359375 C 3.148438 -2.910156 3.453125 -2.535156 3.828125 -2.234375 C 4.203125 -1.941406 4.613281 -1.722656 5.0625 -1.578125 C 5.507812 -1.429688 5.953125 -1.359375 6.390625 -1.359375 C 6.828125 -1.359375 7.269531 -1.429688 7.71875 -1.578125 C 8.164062 -1.722656 8.578125 -1.941406 8.953125 -2.234375 C 9.328125 -2.535156 9.628906 -2.910156 9.859375 -3.359375 C 10.085938 -3.804688 10.203125 -4.332031 10.203125 -4.9375 Z M 10.203125 -4.9375 "/></g></g></g></g><g fill="#7ed957" fill-opacity="1"><g transform="translate(94.854102, 11.103015)"><g><path d="M 1.078125 0 L 1.078125 -9.859375 L 2.796875 -9.859375 L 9.703125 -2.234375 L 9.703125 -9.859375 L 11.4375 -9.859375 L 11.4375 0 L 9.703125 0 L 2.796875 -7.640625 L 2.796875 0 Z M 1.078125 0 "/></g></g></g><g fill="#7ed957" fill-opacity="1"><g transform="translate(110.295202, 11.103015)"><g><path d="M 2.796875 -1.484375 L 9.875 -1.484375 L 9.875 0 L 1.078125 0 L 1.078125 -9.859375 L 9.796875 -9.859375 L 9.796875 -8.390625 L 2.796875 -8.390625 L 2.796875 -5.6875 L 8.84375 -5.6875 L 8.84375 -4.203125 L 2.796875 -4.203125 Z M 2.796875 -1.484375 "/></g></g></g></g></g><g clip-path="url(#4ecebbf4ec)"><path fill="#00bf63" d="M 23.316406 126.5 L 114.214844 41.222656 L 93.402344 5.101562 L 58.261719 65.96875 Z M 39.167969 126.828125 L 34.34375 126.828125 L 93.476562 72.308594 L 112.917969 90.804688 Z M 163.683594 126.828125 L 99.660156 66.46875 L 118.535156 48.636719 Z M 163.683594 126.828125 " fill-opacity="1" fill-rule="evenodd"/></g></svg>