<svg xmlns="http://www.w3.org/2000/svg" xmlns:xlink="http://www.w3.org/1999/xlink" width="500" zoomAndPan="magnify" viewBox="0 0 375 374.999991" height="500" preserveAspectRatio="xMidYMid meet" version="1.0"><defs><g/><clipPath id="73974279e2"><rect x="0" width="334" y="0" height="18"/></clipPath><clipPath id="0aa36d374b"><rect x="0" width="296" y="0" height="35"/></clipPath><clipPath id="840ac373e4"><path d="M 111.203125 76.246094 L 263.453125 76.246094 L 263.453125 208.996094 L 111.203125 208.996094 Z M 111.203125 76.246094 " clip-rule="nonzero"/></clipPath></defs><g transform="matrix(1, 0, 0, 1, 24, 282)"><g clip-path="url(#73974279e2)"><g fill="#00bf63" fill-opacity="1"><g transform="translate(1.071254, 13.449712)"><g><path d="M 3.15625 -7.859375 L 0.0625 -7.859375 L 0.0625 -9.6875 L 8.5 -9.6875 L 8.5 -7.859375 L 5.40625 -7.859375 L 5.40625 0 L 3.15625 0 Z M 3.15625 -7.859375 "/></g></g></g><g fill="#00bf63" fill-opacity="1"><g transform="translate(16.697214, 13.449712)"><g><path d="M 5.84375 0.171875 C 4.832031 0.171875 3.921875 -0.046875 3.109375 -0.484375 C 2.304688 -0.921875 1.675781 -1.519531 1.21875 -2.28125 C 0.769531 -3.039062 0.546875 -3.894531 0.546875 -4.84375 C 0.546875 -5.789062 0.769531 -6.644531 1.21875 -7.40625 C 1.675781 -8.175781 2.304688 -8.773438 3.109375 -9.203125 C 3.921875 -9.640625 4.832031 -9.859375 5.84375 -9.859375 C 6.84375 -9.859375 7.742188 -9.640625 8.546875 -9.203125 C 9.359375 -8.773438 9.992188 -8.175781 10.453125 -7.40625 C 10.910156 -6.644531 11.140625 -5.789062 11.140625 -4.84375 C 11.140625 -3.894531 10.910156 -3.039062 10.453125 -2.28125 C 9.992188 -1.519531 9.359375 -0.921875 8.546875 -0.484375 C 7.742188 -0.046875 6.84375 0.171875 5.84375 0.171875 Z M 5.84375 -1.75 C 6.414062 -1.75 6.929688 -1.878906 7.390625 -2.140625 C 7.847656 -2.398438 8.207031 -2.765625 8.46875 -3.234375 C 8.738281 -3.710938 8.875 -4.25 8.875 -4.84375 C 8.875 -5.445312 8.738281 -5.984375 8.46875 -6.453125 C 8.207031 -6.921875 7.847656 -7.285156 7.390625 -7.546875 C 6.929688 -7.816406 6.414062 -7.953125 5.84375 -7.953125 C 5.269531 -7.953125 4.75 -7.816406 4.28125 -7.546875 C 3.820312 -7.285156 3.460938 -6.921875 3.203125 -6.453125 C 2.941406 -5.984375 2.8125 -5.445312 2.8125 -4.84375 C 2.8125 -4.25 2.941406 -3.710938 3.203125 -3.234375 C 3.460938 -2.765625 3.820312 -2.398438 4.28125 -2.140625 C 4.75 -1.878906 5.269531 -1.75 5.84375 -1.75 Z M 5.84375 -1.75 "/></g></g></g><g fill="#00bf63" fill-opacity="1"><g transform="translate(35.449643, 13.449712)"><g><path d="M 15.796875 -9.6875 L 12.625 0 L 10.21875 0 L 8.078125 -6.5625 L 5.890625 0 L 3.484375 0 L 0.296875 -9.6875 L 2.625 -9.6875 L 4.8125 -2.875 L 7.109375 -9.6875 L 9.171875 -9.6875 L 11.390625 -2.828125 L 13.65625 -9.6875 Z M 15.796875 -9.6875 "/></g></g></g><g fill="#00bf63" fill-opacity="1"><g transform="translate(58.615096, 13.449712)"><g><path d="M 7.53125 -2.078125 L 3.03125 -2.078125 L 2.171875 0 L -0.125 0 L 4.1875 -9.6875 L 6.40625 -9.6875 L 10.75 0 L 8.390625 0 Z M 6.828125 -3.78125 L 5.28125 -7.484375 L 3.75 -3.78125 Z M 6.828125 -3.78125 "/></g></g></g><g fill="#00bf63" fill-opacity="1"><g transform="translate(76.28848, 13.449712)"><g><path d="M 7.328125 0 L 5.453125 -2.703125 L 3.390625 -2.703125 L 3.390625 0 L 1.15625 0 L 1.15625 -9.6875 L 5.34375 -9.6875 C 6.195312 -9.6875 6.941406 -9.539062 7.578125 -9.25 C 8.210938 -8.96875 8.695312 -8.5625 9.03125 -8.03125 C 9.375 -7.507812 9.546875 -6.890625 9.546875 -6.171875 C 9.546875 -5.453125 9.375 -4.832031 9.03125 -4.3125 C 8.6875 -3.789062 8.195312 -3.390625 7.5625 -3.109375 L 9.734375 0 Z M 7.28125 -6.171875 C 7.28125 -6.710938 7.101562 -7.128906 6.75 -7.421875 C 6.40625 -7.710938 5.894531 -7.859375 5.21875 -7.859375 L 3.390625 -7.859375 L 3.390625 -4.484375 L 5.21875 -4.484375 C 5.894531 -4.484375 6.40625 -4.628906 6.75 -4.921875 C 7.101562 -5.222656 7.28125 -5.640625 7.28125 -6.171875 Z M 7.28125 -6.171875 "/></g></g></g><g fill="#00bf63" fill-opacity="1"><g transform="translate(93.533001, 13.449712)"><g><path d="M 1.15625 -9.6875 L 5.546875 -9.6875 C 6.597656 -9.6875 7.523438 -9.484375 8.328125 -9.078125 C 9.140625 -8.679688 9.769531 -8.117188 10.21875 -7.390625 C 10.664062 -6.660156 10.890625 -5.8125 10.890625 -4.84375 C 10.890625 -3.875 10.664062 -3.023438 10.21875 -2.296875 C 9.769531 -1.566406 9.140625 -1 8.328125 -0.59375 C 7.523438 -0.195312 6.597656 0 5.546875 0 L 1.15625 0 Z M 5.4375 -1.84375 C 6.40625 -1.84375 7.175781 -2.113281 7.75 -2.65625 C 8.332031 -3.195312 8.625 -3.925781 8.625 -4.84375 C 8.625 -5.769531 8.332031 -6.5 7.75 -7.03125 C 7.175781 -7.570312 6.40625 -7.84375 5.4375 -7.84375 L 3.390625 -7.84375 L 3.390625 -1.84375 Z M 5.4375 -1.84375 "/></g></g></g><g fill="#00bf63" fill-opacity="1"><g transform="translate(112.036415, 13.449712)"><g><path d="M 4.328125 0.171875 C 3.566406 0.171875 2.828125 0.0664062 2.109375 -0.140625 C 1.390625 -0.347656 0.816406 -0.617188 0.390625 -0.953125 L 1.15625 -2.640625 C 1.5625 -2.335938 2.050781 -2.09375 2.625 -1.90625 C 3.195312 -1.726562 3.769531 -1.640625 4.34375 -1.640625 C 4.976562 -1.640625 5.445312 -1.734375 5.75 -1.921875 C 6.0625 -2.109375 6.21875 -2.359375 6.21875 -2.671875 C 6.21875 -2.898438 6.125 -3.085938 5.9375 -3.234375 C 5.757812 -3.390625 5.53125 -3.515625 5.25 -3.609375 C 4.96875 -3.703125 4.585938 -3.804688 4.109375 -3.921875 C 3.367188 -4.097656 2.765625 -4.269531 2.296875 -4.4375 C 1.828125 -4.613281 1.421875 -4.894531 1.078125 -5.28125 C 0.742188 -5.675781 0.578125 -6.195312 0.578125 -6.84375 C 0.578125 -7.40625 0.726562 -7.910156 1.03125 -8.359375 C 1.34375 -8.816406 1.804688 -9.179688 2.421875 -9.453125 C 3.035156 -9.722656 3.785156 -9.859375 4.671875 -9.859375 C 5.285156 -9.859375 5.882812 -9.78125 6.46875 -9.625 C 7.0625 -9.476562 7.582031 -9.269531 8.03125 -9 L 7.34375 -7.296875 C 6.445312 -7.804688 5.550781 -8.0625 4.65625 -8.0625 C 4.019531 -8.0625 3.550781 -7.957031 3.25 -7.75 C 2.957031 -7.550781 2.8125 -7.285156 2.8125 -6.953125 C 2.8125 -6.617188 2.984375 -6.367188 3.328125 -6.203125 C 3.671875 -6.046875 4.203125 -5.890625 4.921875 -5.734375 C 5.648438 -5.554688 6.25 -5.378906 6.71875 -5.203125 C 7.195312 -5.023438 7.601562 -4.75 7.9375 -4.375 C 8.269531 -4 8.4375 -3.488281 8.4375 -2.84375 C 8.4375 -2.28125 8.28125 -1.769531 7.96875 -1.3125 C 7.664062 -0.863281 7.203125 -0.503906 6.578125 -0.234375 C 5.960938 0.0351562 5.210938 0.171875 4.328125 0.171875 Z M 4.328125 0.171875 "/></g></g></g><g fill="#00bf63" fill-opacity="1"><g transform="translate(127.939052, 13.449712)"><g/></g></g><g fill="#00bf63" fill-opacity="1"><g transform="translate(138.930636, 13.449712)"><g><path d="M 3.15625 -7.859375 L 0.0625 -7.859375 L 0.0625 -9.6875 L 8.5 -9.6875 L 8.5 -7.859375 L 5.40625 -7.859375 L 5.40625 0 L 3.15625 0 Z M 3.15625 -7.859375 "/></g></g></g><g fill="#00bf63" fill-opacity="1"><g transform="translate(154.556596, 13.449712)"><g><path d="M 10.03125 -9.6875 L 10.03125 0 L 7.796875 0 L 7.796875 -3.96875 L 3.390625 -3.96875 L 3.390625 0 L 1.15625 0 L 1.15625 -9.6875 L 3.390625 -9.6875 L 3.390625 -5.875 L 7.796875 -5.875 L 7.796875 -9.6875 Z M 10.03125 -9.6875 "/></g></g></g><g fill="#00bf63" fill-opacity="1"><g transform="translate(172.810996, 13.449712)"><g><path d="M 8.65625 -1.796875 L 8.65625 0 L 1.15625 0 L 1.15625 -9.6875 L 8.46875 -9.6875 L 8.46875 -7.890625 L 3.375 -7.890625 L 3.375 -5.78125 L 7.875 -5.78125 L 7.875 -4.046875 L 3.375 -4.046875 L 3.375 -1.796875 Z M 8.65625 -1.796875 "/></g></g></g><g fill="#00bf63" fill-opacity="1"><g transform="translate(189.170144, 13.449712)"><g/></g></g><g fill="#00bf63" fill-opacity="1"><g transform="translate(200.161728, 13.449712)"><g><path d="M 5.84375 0.171875 C 4.832031 0.171875 3.921875 -0.046875 3.109375 -0.484375 C 2.304688 -0.921875 1.675781 -1.519531 1.21875 -2.28125 C 0.769531 -3.039062 0.546875 -3.894531 0.546875 -4.84375 C 0.546875 -5.789062 0.769531 -6.644531 1.21875 -7.40625 C 1.675781 -8.175781 2.304688 -8.773438 3.109375 -9.203125 C 3.921875 -9.640625 4.832031 -9.859375 5.84375 -9.859375 C 6.84375 -9.859375 7.742188 -9.640625 8.546875 -9.203125 C 9.359375 -8.773438 9.992188 -8.175781 10.453125 -7.40625 C 10.910156 -6.644531 11.140625 -5.789062 11.140625 -4.84375 C 11.140625 -3.894531 10.910156 -3.039062 10.453125 -2.28125 C 9.992188 -1.519531 9.359375 -0.921875 8.546875 -0.484375 C 7.742188 -0.046875 6.84375 0.171875 5.84375 0.171875 Z M 5.84375 -1.75 C 6.414062 -1.75 6.929688 -1.878906 7.390625 -2.140625 C 7.847656 -2.398438 8.207031 -2.765625 8.46875 -3.234375 C 8.738281 -3.710938 8.875 -4.25 8.875 -4.84375 C 8.875 -5.445312 8.738281 -5.984375 8.46875 -6.453125 C 8.207031 -6.921875 7.847656 -7.285156 7.390625 -7.546875 C 6.929688 -7.816406 6.414062 -7.953125 5.84375 -7.953125 C 5.269531 -7.953125 4.75 -7.816406 4.28125 -7.546875 C 3.820312 -7.285156 3.460938 -6.921875 3.203125 -6.453125 C 2.941406 -5.984375 2.8125 -5.445312 2.8125 -4.84375 C 2.8125 -4.25 2.941406 -3.710938 3.203125 -3.234375 C 3.460938 -2.765625 3.820312 -2.398438 4.28125 -2.140625 C 4.75 -1.878906 5.269531 -1.75 5.84375 -1.75 Z M 5.84375 -1.75 "/></g></g></g><g fill="#00bf63" fill-opacity="1"><g transform="translate(218.914157, 13.449712)"><g><path d="M 5.34375 -9.6875 C 6.195312 -9.6875 6.941406 -9.539062 7.578125 -9.25 C 8.210938 -8.96875 8.695312 -8.5625 9.03125 -8.03125 C 9.375 -7.507812 9.546875 -6.890625 9.546875 -6.171875 C 9.546875 -5.460938 9.375 -4.84375 9.03125 -4.3125 C 8.695312 -3.78125 8.210938 -3.375 7.578125 -3.09375 C 6.941406 -2.8125 6.195312 -2.671875 5.34375 -2.671875 L 3.390625 -2.671875 L 3.390625 0 L 1.15625 0 L 1.15625 -9.6875 Z M 5.21875 -4.5 C 5.894531 -4.5 6.40625 -4.644531 6.75 -4.9375 C 7.101562 -5.226562 7.28125 -5.640625 7.28125 -6.171875 C 7.28125 -6.710938 7.101562 -7.128906 6.75 -7.421875 C 6.40625 -7.710938 5.894531 -7.859375 5.21875 -7.859375 L 3.390625 -7.859375 L 3.390625 -4.5 Z M 5.21875 -4.5 "/></g></g></g><g fill="#00bf63" fill-opacity="1"><g transform="translate(236.117175, 13.449712)"><g><path d="M 3.15625 -7.859375 L 0.0625 -7.859375 L 0.0625 -9.6875 L 8.5 -9.6875 L 8.5 -7.859375 L 5.40625 -7.859375 L 5.40625 0 L 3.15625 0 Z M 3.15625 -7.859375 "/></g></g></g><g fill="#00bf63" fill-opacity="1"><g transform="translate(251.743149, 13.449712)"><g><path d="M 1.15625 -9.6875 L 3.390625 -9.6875 L 3.390625 0 L 1.15625 0 Z M 1.15625 -9.6875 "/></g></g></g><g fill="#00bf63" fill-opacity="1"><g transform="translate(263.357239, 13.449712)"><g><path d="M 9.96875 0 L 9.953125 -5.8125 L 7.109375 -1.03125 L 6.09375 -1.03125 L 3.25 -5.6875 L 3.25 0 L 1.15625 0 L 1.15625 -9.6875 L 3 -9.6875 L 6.625 -3.671875 L 10.203125 -9.6875 L 12.046875 -9.6875 L 12.078125 0 Z M 9.96875 0 "/></g></g></g><g fill="#00bf63" fill-opacity="1"><g transform="translate(283.645252, 13.449712)"><g><path d="M 5.453125 0.171875 C 4.066406 0.171875 2.988281 -0.207031 2.21875 -0.96875 C 1.445312 -1.738281 1.0625 -2.835938 1.0625 -4.265625 L 1.0625 -9.6875 L 3.3125 -9.6875 L 3.3125 -4.34375 C 3.3125 -2.613281 4.03125 -1.75 5.46875 -1.75 C 6.164062 -1.75 6.695312 -1.957031 7.0625 -2.375 C 7.4375 -2.789062 7.625 -3.445312 7.625 -4.34375 L 7.625 -9.6875 L 9.84375 -9.6875 L 9.84375 -4.265625 C 9.84375 -2.835938 9.457031 -1.738281 8.6875 -0.96875 C 7.914062 -0.207031 6.835938 0.171875 5.453125 0.171875 Z M 5.453125 0.171875 "/></g></g></g><g fill="#00bf63" fill-opacity="1"><g transform="translate(301.622962, 13.449712)"><g><path d="M 9.96875 0 L 9.953125 -5.8125 L 7.109375 -1.03125 L 6.09375 -1.03125 L 3.25 -5.6875 L 3.25 0 L 1.15625 0 L 1.15625 -9.6875 L 3 -9.6875 L 6.625 -3.671875 L 10.203125 -9.6875 L 12.046875 -9.6875 L 12.078125 0 Z M 9.96875 0 "/></g></g></g><g fill="#00bf63" fill-opacity="1"><g transform="translate(321.910947, 13.449712)"><g><path d="M 0.71875 -9.6875 L 3.296875 -9.6875 L 2.859375 -3.359375 L 1.15625 -3.359375 Z M 2 0.109375 C 1.625 0.109375 1.304688 -0.0078125 1.046875 -0.25 C 0.796875 -0.5 0.671875 -0.800781 0.671875 -1.15625 C 0.671875 -1.5 0.796875 -1.785156 1.046875 -2.015625 C 1.296875 -2.253906 1.613281 -2.375 2 -2.375 C 2.394531 -2.375 2.71875 -2.253906 2.96875 -2.015625 C 3.21875 -1.785156 3.34375 -1.5 3.34375 -1.15625 C 3.34375 -0.800781 3.210938 -0.5 2.953125 -0.25 C 2.703125 -0.0078125 2.382812 0.109375 2 0.109375 Z M 2 0.109375 "/></g></g></g></g></g><g transform="matrix(1, 0, 0, 1, 43, 240)"><g clip-path="url(#0aa36d374b)"><g fill="#7ed957" fill-opacity="1"><g transform="translate(1.073963, 26.282494)"><g><path d="M 1.234375 0 L 13.125 -23.765625 L 17.203125 -23.765625 L 29.125 0 L 24.765625 0 L 22.828125 -3.8125 L 7.5 -3.8125 L 5.5625 0 Z M 15.15625 -18.90625 L 9.265625 -7.328125 L 21.046875 -7.328125 Z M 15.15625 -18.90625 "/></g></g></g><g fill="#7ed957" fill-opacity="1"><g transform="translate(38.362292, 26.282494)"><g><path d="M 6.65625 -3.515625 L 23.03125 -3.515625 L 23.03125 0 L 2.578125 0 L 2.578125 -23.421875 L 6.65625 -23.421875 Z M 6.65625 -3.515625 "/></g></g></g><g fill="#7ed957" fill-opacity="1"><g transform="translate(69.625832, 26.282494)"><g><path d="M 0.9375 -23.421875 L 27.078125 -23.421875 L 27.078125 -19.984375 L 16.0625 -19.984375 L 16.0625 0 L 11.953125 0 L 11.953125 -19.984375 L 0.9375 -19.984375 Z M 0.9375 -23.421875 "/></g></g></g><g fill="#7ed957" fill-opacity="1"><g transform="translate(104.638132, 26.282494)"><g><path d="M 2.578125 0 L 2.578125 -23.421875 L 6.65625 -23.421875 L 6.65625 0 Z M 2.578125 0 "/></g></g></g><g fill="#7ed957" fill-opacity="1"><g transform="translate(120.806212, 26.282494)"><g><path d="M 2.25 -9.265625 L 2.25 -23.421875 L 6.328125 -23.421875 L 6.328125 -9.265625 C 6.328125 -7.910156 6.6875 -6.78125 7.40625 -5.875 C 8.132812 -4.96875 9.066406 -4.289062 10.203125 -3.84375 C 11.347656 -3.394531 12.53125 -3.171875 13.75 -3.171875 C 15 -3.171875 16.1875 -3.394531 17.3125 -3.84375 C 18.445312 -4.289062 19.375 -4.96875 20.09375 -5.875 C 20.820312 -6.78125 21.1875 -7.910156 21.1875 -9.265625 L 21.1875 -23.421875 L 25.265625 -23.421875 L 25.265625 -9.265625 C 25.265625 -7.597656 24.941406 -6.125 24.296875 -4.84375 C 23.648438 -3.570312 22.773438 -2.519531 21.671875 -1.6875 C 20.566406 -0.851562 19.332031 -0.222656 17.96875 0.203125 C 16.613281 0.628906 15.207031 0.84375 13.75 0.84375 C 12.320312 0.84375 10.921875 0.628906 9.546875 0.203125 C 8.179688 -0.222656 6.945312 -0.851562 5.84375 -1.6875 C 4.738281 -2.519531 3.863281 -3.570312 3.21875 -4.84375 C 2.570312 -6.125 2.25 -7.597656 2.25 -9.265625 Z M 2.25 -9.265625 "/></g></g></g><g fill="#7ed957" fill-opacity="1"><g transform="translate(155.282975, 26.282494)"><g><path d="M 24.4375 -20.65625 L 22.21875 -17.46875 C 21.613281 -18.050781 20.820312 -18.546875 19.84375 -18.953125 C 18.863281 -19.367188 17.800781 -19.691406 16.65625 -19.921875 C 15.519531 -20.160156 14.394531 -20.28125 13.28125 -20.28125 C 12.21875 -20.28125 11.226562 -20.15625 10.3125 -19.90625 C 9.394531 -19.664062 8.660156 -19.296875 8.109375 -18.796875 C 7.566406 -18.296875 7.296875 -17.628906 7.296875 -16.796875 C 7.296875 -16.066406 7.609375 -15.492188 8.234375 -15.078125 C 8.859375 -14.660156 9.6875 -14.332031 10.71875 -14.09375 C 11.757812 -13.863281 12.894531 -13.660156 14.125 -13.484375 C 15.351562 -13.304688 16.578125 -13.082031 17.796875 -12.8125 C 19.023438 -12.550781 20.160156 -12.171875 21.203125 -11.671875 C 22.242188 -11.179688 23.078125 -10.515625 23.703125 -9.671875 C 24.328125 -8.828125 24.640625 -7.734375 24.640625 -6.390625 C 24.640625 -5.140625 24.332031 -4.0625 23.71875 -3.15625 C 23.101562 -2.257812 22.273438 -1.523438 21.234375 -0.953125 C 20.191406 -0.378906 19.007812 0.0390625 17.6875 0.3125 C 16.363281 0.59375 15 0.734375 13.59375 0.734375 C 12.070312 0.734375 10.5625 0.585938 9.0625 0.296875 C 7.570312 0.00390625 6.203125 -0.410156 4.953125 -0.953125 C 3.703125 -1.503906 2.675781 -2.15625 1.875 -2.90625 L 4.1875 -6.09375 C 4.789062 -5.46875 5.617188 -4.921875 6.671875 -4.453125 C 7.734375 -3.984375 8.894531 -3.625 10.15625 -3.375 C 11.414062 -3.132812 12.660156 -3.015625 13.890625 -3.015625 C 15.023438 -3.015625 16.078125 -3.128906 17.046875 -3.359375 C 18.023438 -3.597656 18.800781 -3.960938 19.375 -4.453125 C 19.957031 -4.941406 20.25 -5.578125 20.25 -6.359375 C 20.25 -7.140625 19.9375 -7.753906 19.3125 -8.203125 C 18.6875 -8.648438 17.859375 -8.992188 16.828125 -9.234375 C 15.804688 -9.484375 14.679688 -9.703125 13.453125 -9.890625 C 12.222656 -10.078125 10.988281 -10.304688 9.75 -10.578125 C 8.519531 -10.847656 7.390625 -11.222656 6.359375 -11.703125 C 5.328125 -12.179688 4.5 -12.832031 3.875 -13.65625 C 3.25 -14.476562 2.9375 -15.550781 2.9375 -16.875 C 2.9375 -18.144531 3.21875 -19.234375 3.78125 -20.140625 C 4.34375 -21.054688 5.109375 -21.800781 6.078125 -22.375 C 7.046875 -22.945312 8.132812 -23.363281 9.34375 -23.625 C 10.5625 -23.894531 11.84375 -24.03125 13.1875 -24.03125 C 14.613281 -24.03125 16.03125 -23.890625 17.4375 -23.609375 C 18.84375 -23.328125 20.148438 -22.9375 21.359375 -22.4375 C 22.578125 -21.9375 23.601562 -21.34375 24.4375 -20.65625 Z M 24.4375 -20.65625 "/></g></g></g><g fill="#7ed957" fill-opacity="1"><g transform="translate(188.78907, 26.282494)"><g><path d="M 28.421875 -11.71875 C 28.421875 -9.632812 28.019531 -7.816406 27.21875 -6.265625 C 26.425781 -4.722656 25.378906 -3.441406 24.078125 -2.421875 C 22.773438 -1.410156 21.347656 -0.644531 19.796875 -0.125 C 18.242188 0.382812 16.695312 0.640625 15.15625 0.640625 C 13.644531 0.640625 12.113281 0.382812 10.5625 -0.125 C 9.007812 -0.644531 7.578125 -1.410156 6.265625 -2.421875 C 4.960938 -3.441406 3.914062 -4.722656 3.125 -6.265625 C 2.332031 -7.816406 1.9375 -9.632812 1.9375 -11.71875 C 1.9375 -13.789062 2.332031 -15.601562 3.125 -17.15625 C 3.914062 -18.707031 4.960938 -19.988281 6.265625 -21 C 7.578125 -22.019531 9.007812 -22.785156 10.5625 -23.296875 C 12.113281 -23.804688 13.644531 -24.0625 15.15625 -24.0625 C 16.695312 -24.0625 18.242188 -23.804688 19.796875 -23.296875 C 21.347656 -22.785156 22.773438 -22.019531 24.078125 -21 C 25.378906 -19.988281 26.425781 -18.707031 27.21875 -17.15625 C 28.019531 -15.601562 28.421875 -13.789062 28.421875 -11.71875 Z M 24.234375 -11.71875 C 24.234375 -13.144531 23.957031 -14.382812 23.40625 -15.4375 C 22.863281 -16.5 22.144531 -17.378906 21.25 -18.078125 C 20.351562 -18.785156 19.375 -19.316406 18.3125 -19.671875 C 17.257812 -20.035156 16.207031 -20.21875 15.15625 -20.21875 C 14.132812 -20.21875 13.085938 -20.035156 12.015625 -19.671875 C 10.941406 -19.316406 9.960938 -18.785156 9.078125 -18.078125 C 8.203125 -17.378906 7.488281 -16.5 6.9375 -15.4375 C 6.394531 -14.382812 6.125 -13.144531 6.125 -11.71875 C 6.125 -10.289062 6.394531 -9.046875 6.9375 -7.984375 C 7.488281 -6.921875 8.203125 -6.035156 9.078125 -5.328125 C 9.960938 -4.628906 10.941406 -4.101562 12.015625 -3.75 C 13.085938 -3.394531 14.132812 -3.21875 15.15625 -3.21875 C 16.207031 -3.21875 17.257812 -3.394531 18.3125 -3.75 C 19.375 -4.101562 20.351562 -4.628906 21.25 -5.328125 C 22.144531 -6.035156 22.863281 -6.921875 23.40625 -7.984375 C 23.957031 -9.046875 24.234375 -10.289062 24.234375 -11.71875 Z M 24.234375 -11.71875 "/></g></g></g><g fill="#7ed957" fill-opacity="1"><g transform="translate(226.110873, 26.282494)"><g><path d="M 2.578125 0 L 2.578125 -23.421875 L 6.65625 -23.421875 L 23.0625 -5.28125 L 23.0625 -23.421875 L 27.171875 -23.421875 L 27.171875 0 L 23.0625 0 L 6.65625 -18.140625 L 6.65625 0 Z M 2.578125 0 "/></g></g></g><g fill="#7ed957" fill-opacity="1"><g transform="translate(262.796747, 26.282494)"><g><path d="M 6.65625 -3.515625 L 23.46875 -3.515625 L 23.46875 0 L 2.578125 0 L 2.578125 -23.421875 L 23.265625 -23.421875 L 23.265625 -19.90625 L 6.65625 -19.90625 L 6.65625 -13.484375 L 20.984375 -13.484375 L 20.984375 -9.96875 L 6.65625 -9.96875 Z M 6.65625 -3.515625 "/></g></g></g></g></g><g clip-path="url(#840ac373e4)"><path fill="#00bf63" d="M 111.210938 208.324219 L 210.019531 115.628906 L 187.394531 76.371094 L 149.199219 142.527344 Z M 128.441406 208.683594 L 123.199219 208.683594 L 187.472656 149.421875 L 208.605469 169.527344 Z M 263.785156 208.683594 L 194.195312 143.074219 L 214.714844 123.691406 Z M 263.785156 208.683594 " fill-opacity="1" fill-rule="evenodd"/></g></svg>