<svg xmlns="http://www.w3.org/2000/svg" xmlns:xlink="http://www.w3.org/1999/xlink" width="250" zoomAndPan="magnify" viewBox="0 0 187.5 187.499992" height="250" preserveAspectRatio="xMidYMid meet" version="1.0"><defs><g/><clipPath id="ca07654186"><path d="M 0.03125 1 L 13 1 L 13 12 L 0.03125 12 Z M 0.03125 1 " clip-rule="nonzero"/></clipPath><clipPath id="2196048596"><path d="M 65 0.4375 L 76 0.4375 L 76 12 L 65 12 Z M 65 0.4375 " clip-rule="nonzero"/></clipPath><clipPath id="fb5bfac148"><path d="M 79 0.4375 L 92 0.4375 L 92 12 L 79 12 Z M 79 0.4375 " clip-rule="nonzero"/></clipPath><clipPath id="2d48da9d45"><rect x="0" width="125" y="0" height="15"/></clipPath><clipPath id="0c876bf7e8"><path d="M 23.308594 5 L 163.933594 5 L 163.933594 126.917969 L 23.308594 126.917969 Z M 23.308594 5 " clip-rule="nonzero"/></clipPath></defs><g transform="matrix(1, 0, 0, 1, 33, 136)"><g clip-path="url(#2d48da9d45)"><g clip-path="url(#ca07654186)"><g fill="#7ed957" fill-opacity="1"><g transform="translate(0.135965, 11.10303)"><g><path d="M 0.515625 0 L 5.53125 -10 L 7.25 -10 L 12.265625 0 L 10.421875 0 L 9.609375 -1.609375 L 3.15625 -1.609375 L 2.34375 0 Z M 6.390625 -7.96875 L 3.90625 -3.09375 L 8.859375 -3.09375 Z M 6.390625 -7.96875 "/></g></g></g></g><g fill="#7ed957" fill-opacity="1"><g transform="translate(15.830639, 11.10303)"><g><path d="M 2.796875 -1.484375 L 9.703125 -1.484375 L 9.703125 0 L 1.078125 0 L 1.078125 -9.859375 L 2.796875 -9.859375 Z M 2.796875 -1.484375 "/></g></g></g><g fill="#7ed957" fill-opacity="1"><g transform="translate(28.989478, 11.10303)"><g><path d="M 0.390625 -9.859375 L 11.40625 -9.859375 L 11.40625 -8.40625 L 6.765625 -8.40625 L 6.765625 0 L 5.03125 0 L 5.03125 -8.40625 L 0.390625 -8.40625 Z M 0.390625 -9.859375 "/></g></g></g><g fill="#7ed957" fill-opacity="1"><g transform="translate(43.72617, 11.10303)"><g><path d="M 1.078125 0 L 1.078125 -9.859375 L 2.796875 -9.859375 L 2.796875 0 Z M 1.078125 0 "/></g></g></g><g fill="#7ed957" fill-opacity="1"><g transform="translate(50.531322, 11.10303)"><g><path d="M 0.9375 -3.90625 L 0.9375 -9.859375 L 2.65625 -9.859375 L 2.65625 -3.90625 C 2.65625 -3.332031 2.804688 -2.851562 3.109375 -2.46875 C 3.421875 -2.09375 3.816406 -1.8125 4.296875 -1.625 C 4.773438 -1.4375 5.273438 -1.34375 5.796875 -1.34375 C 6.316406 -1.34375 6.8125 -1.4375 7.28125 -1.625 C 7.757812 -1.8125 8.148438 -2.09375 8.453125 -2.46875 C 8.765625 -2.851562 8.921875 -3.332031 8.921875 -3.90625 L 8.921875 -9.859375 L 10.640625 -9.859375 L 10.640625 -3.90625 C 10.640625 -3.195312 10.503906 -2.570312 10.234375 -2.03125 C 9.960938 -1.5 9.59375 -1.054688 9.125 -0.703125 C 8.65625 -0.359375 8.132812 -0.0976562 7.5625 0.078125 C 6.988281 0.265625 6.398438 0.359375 5.796875 0.359375 C 5.191406 0.359375 4.597656 0.265625 4.015625 0.078125 C 3.441406 -0.0976562 2.921875 -0.359375 2.453125 -0.703125 C 1.992188 -1.054688 1.625 -1.5 1.34375 -2.03125 C 1.070312 -2.570312 0.9375 -3.195312 0.9375 -3.90625 Z M 0.9375 -3.90625 "/></g></g></g><g clip-path="url(#2196048596)"><g fill="#7ed957" fill-opacity="1"><g transform="translate(65.042607, 11.10303)"><g><path d="M 10.28125 -8.703125 L 9.359375 -7.359375 C 9.109375 -7.597656 8.773438 -7.804688 8.359375 -7.984375 C 7.941406 -8.160156 7.492188 -8.296875 7.015625 -8.390625 C 6.535156 -8.492188 6.0625 -8.546875 5.59375 -8.546875 C 5.144531 -8.546875 4.726562 -8.492188 4.34375 -8.390625 C 3.957031 -8.285156 3.648438 -8.125 3.421875 -7.90625 C 3.191406 -7.695312 3.078125 -7.421875 3.078125 -7.078125 C 3.078125 -6.765625 3.207031 -6.519531 3.46875 -6.34375 C 3.726562 -6.175781 4.078125 -6.039062 4.515625 -5.9375 C 4.953125 -5.84375 5.425781 -5.753906 5.9375 -5.671875 C 6.457031 -5.597656 6.972656 -5.503906 7.484375 -5.390625 C 8.003906 -5.285156 8.484375 -5.128906 8.921875 -4.921875 C 9.359375 -4.710938 9.707031 -4.425781 9.96875 -4.0625 C 10.238281 -3.707031 10.375 -3.25 10.375 -2.6875 C 10.375 -2.164062 10.242188 -1.710938 9.984375 -1.328125 C 9.722656 -0.953125 9.375 -0.644531 8.9375 -0.40625 C 8.5 -0.164062 8 0.0078125 7.4375 0.125 C 6.882812 0.25 6.3125 0.3125 5.71875 0.3125 C 5.082031 0.3125 4.445312 0.25 3.8125 0.125 C 3.1875 0 2.609375 -0.175781 2.078125 -0.40625 C 1.554688 -0.632812 1.128906 -0.90625 0.796875 -1.21875 L 1.765625 -2.5625 C 2.015625 -2.300781 2.363281 -2.070312 2.8125 -1.875 C 3.257812 -1.675781 3.75 -1.523438 4.28125 -1.421875 C 4.8125 -1.316406 5.332031 -1.265625 5.84375 -1.265625 C 6.320312 -1.265625 6.765625 -1.3125 7.171875 -1.40625 C 7.585938 -1.507812 7.914062 -1.664062 8.15625 -1.875 C 8.40625 -2.082031 8.53125 -2.347656 8.53125 -2.671875 C 8.53125 -3.003906 8.394531 -3.265625 8.125 -3.453125 C 7.863281 -3.640625 7.515625 -3.785156 7.078125 -3.890625 C 6.648438 -3.992188 6.175781 -4.082031 5.65625 -4.15625 C 5.144531 -4.238281 4.628906 -4.335938 4.109375 -4.453125 C 3.585938 -4.566406 3.109375 -4.722656 2.671875 -4.921875 C 2.242188 -5.128906 1.894531 -5.40625 1.625 -5.75 C 1.363281 -6.09375 1.234375 -6.546875 1.234375 -7.109375 C 1.234375 -7.640625 1.347656 -8.097656 1.578125 -8.484375 C 1.816406 -8.867188 2.140625 -9.179688 2.546875 -9.421875 C 2.960938 -9.660156 3.425781 -9.835938 3.9375 -9.953125 C 4.445312 -10.066406 4.984375 -10.125 5.546875 -10.125 C 6.148438 -10.125 6.75 -10.0625 7.34375 -9.9375 C 7.9375 -9.820312 8.488281 -9.65625 9 -9.4375 C 9.507812 -9.226562 9.9375 -8.984375 10.28125 -8.703125 Z M 10.28125 -8.703125 "/></g></g></g></g><g clip-path="url(#fb5bfac148)"><g fill="#7ed957" fill-opacity="1"><g transform="translate(79.145338, 11.10303)"><g><path d="M 11.96875 -4.9375 C 11.96875 -4.0625 11.800781 -3.296875 11.46875 -2.640625 C 11.132812 -1.984375 10.691406 -1.441406 10.140625 -1.015625 C 9.585938 -0.585938 8.984375 -0.265625 8.328125 -0.046875 C 7.679688 0.160156 7.035156 0.265625 6.390625 0.265625 C 5.742188 0.265625 5.09375 0.160156 4.4375 -0.046875 C 3.789062 -0.265625 3.191406 -0.585938 2.640625 -1.015625 C 2.085938 -1.441406 1.644531 -1.984375 1.3125 -2.640625 C 0.976562 -3.296875 0.8125 -4.0625 0.8125 -4.9375 C 0.8125 -5.8125 0.976562 -6.570312 1.3125 -7.21875 C 1.644531 -7.875 2.085938 -8.414062 2.640625 -8.84375 C 3.191406 -9.269531 3.789062 -9.59375 4.4375 -9.8125 C 5.09375 -10.03125 5.742188 -10.140625 6.390625 -10.140625 C 7.035156 -10.140625 7.679688 -10.03125 8.328125 -9.8125 C 8.984375 -9.59375 9.585938 -9.269531 10.140625 -8.84375 C 10.691406 -8.414062 11.132812 -7.875 11.46875 -7.21875 C 11.800781 -6.570312 11.96875 -5.8125 11.96875 -4.9375 Z M 10.203125 -4.9375 C 10.203125 -5.53125 10.085938 -6.050781 9.859375 -6.5 C 9.628906 -6.945312 9.328125 -7.316406 8.953125 -7.609375 C 8.578125 -7.910156 8.164062 -8.132812 7.71875 -8.28125 C 7.269531 -8.4375 6.828125 -8.515625 6.390625 -8.515625 C 5.953125 -8.515625 5.507812 -8.4375 5.0625 -8.28125 C 4.613281 -8.132812 4.203125 -7.910156 3.828125 -7.609375 C 3.453125 -7.316406 3.148438 -6.945312 2.921875 -6.5 C 2.691406 -6.050781 2.578125 -5.53125 2.578125 -4.9375 C 2.578125 -4.332031 2.691406 -3.804688 2.921875 -3.359375 C 3.148438 -2.910156 3.453125 -2.535156 3.828125 -2.234375 C 4.203125 -1.941406 4.613281 -1.722656 5.0625 -1.578125 C 5.507812 -1.429688 5.953125 -1.359375 6.390625 -1.359375 C 6.828125 -1.359375 7.269531 -1.429688 7.71875 -1.578125 C 8.164062 -1.722656 8.578125 -1.941406 8.953125 -2.234375 C 9.328125 -2.535156 9.628906 -2.910156 9.859375 -3.359375 C 10.085938 -3.804688 10.203125 -4.332031 10.203125 -4.9375 Z M 10.203125 -4.9375 "/></g></g></g></g><g fill="#7ed957" fill-opacity="1"><g transform="translate(94.854102, 11.10303)"><g><path d="M 1.078125 0 L 1.078125 -9.859375 L 2.796875 -9.859375 L 9.703125 -2.234375 L 9.703125 -9.859375 L 11.4375 -9.859375 L 11.4375 0 L 9.703125 0 L 2.796875 -7.640625 L 2.796875 0 Z M 1.078125 0 "/></g></g></g><g fill="#7ed957" fill-opacity="1"><g transform="translate(110.295202, 11.10303)"><g><path d="M 2.796875 -1.484375 L 9.875 -1.484375 L 9.875 0 L 1.078125 0 L 1.078125 -9.859375 L 9.796875 -9.859375 L 9.796875 -8.390625 L 2.796875 -8.390625 L 2.796875 -5.6875 L 8.84375 -5.6875 L 8.84375 -4.203125 L 2.796875 -4.203125 Z M 2.796875 -1.484375 "/></g></g></g></g></g><g clip-path="url(#0c876bf7e8)"><path fill="#00bf63" d="M 23.316406 126.5 L 114.214844 41.222656 L 93.402344 5.101562 L 58.261719 65.96875 Z M 39.167969 126.828125 L 34.34375 126.828125 L 93.476562 72.308594 L 112.917969 90.804688 Z M 163.683594 126.828125 L 99.660156 66.46875 L 118.535156 48.636719 Z M 163.683594 126.828125 " fill-opacity="1" fill-rule="evenodd"/></g></svg>